<?xml version="1.0" standalone="no"?>
<!DOCTYPE svg PUBLIC "-//W3C//DTD SVG 20010904//EN"
 "http://www.w3.org/TR/2001/REC-SVG-20010904/DTD/svg10.dtd">
<svg version="1.0" xmlns="http://www.w3.org/2000/svg"
 width="44.000000pt" height="55.000000pt" viewBox="0 0 44.000000 55.000000"
 preserveAspectRatio="xMidYMid meet">
<metadata>
Created by potrace 1.16, written by Peter Selinger 2001-2019
</metadata>
<g transform="translate(0.000000,55.000000) scale(0.100000,-0.100000)"
fill="#000000" stroke="none">
<path d="M122 438 c-21 -10 -23 -17 -18 -52 3 -23 9 -75 14 -116 5 -41 14 -85
20 -97 7 -12 12 -31 12 -43 0 -14 4 -19 12 -14 7 5 28 7 46 5 19 -1 46 2 60 7
15 6 36 13 46 16 15 5 17 9 8 18 -7 7 -12 26 -12 43 -1 47 -41 85 -89 85 -26
0 -26 1 0 44 13 23 19 48 17 73 -3 38 -4 38 -48 40 -25 1 -56 -3 -68 -9z m96
-36 c3 -23 -46 -112 -62 -112 -4 0 -5 11 -2 24 4 15 0 28 -9 36 -20 17 -19 57
3 69 29 18 67 9 70 -17z m56 -164 c20 -29 20 -64 0 -72 -9 -3 -37 -6 -64 -6
-52 0 -60 8 -60 60 0 24 5 29 28 33 64 10 81 7 96 -15z"/>
</g>
</svg>
