<?xml version="1.0" standalone="no"?>
<!DOCTYPE svg PUBLIC "-//W3C//DTD SVG 20010904//EN"
 "http://www.w3.org/TR/2001/REC-SVG-20010904/DTD/svg10.dtd">
<svg version="1.0" xmlns="http://www.w3.org/2000/svg"
 width="42.000000pt" height="55.000000pt" viewBox="0 0 42.000000 55.000000"
 preserveAspectRatio="xMidYMid meet">
<metadata>
Created by potrace 1.16, written by Peter Selinger 2001-2019
</metadata>
<g transform="translate(0.000000,55.000000) scale(0.100000,-0.100000)"
fill="#000000" stroke="none">
<path d="M104 396 c4 -37 18 -102 31 -144 14 -42 25 -87 25 -98 0 -26 17 -34
71 -34 26 0 46 7 59 20 24 24 24 30 6 73 -23 56 -89 85 -116 52 -11 -13 -15
-13 -21 -3 -11 18 -31 115 -33 157 -1 20 -7 36 -15 39 -12 4 -13 -7 -7 -62z
m151 -171 c33 -32 32 -63 -2 -76 -15 -5 -36 -9 -47 -7 -18 3 -21 9 -19 42 3
38 17 66 35 66 5 0 20 -11 33 -25z"/>
</g>
</svg>
