<?xml version="1.0" standalone="no"?>
<!DOCTYPE svg PUBLIC "-//W3C//DTD SVG 20010904//EN"
 "http://www.w3.org/TR/2001/REC-SVG-20010904/DTD/svg10.dtd">
<svg version="1.0" xmlns="http://www.w3.org/2000/svg"
 width="45.000000pt" height="49.000000pt" viewBox="0 0 45.000000 49.000000"
 preserveAspectRatio="xMidYMid meet">
<metadata>
Created by potrace 1.16, written by Peter Selinger 2001-2019
</metadata>
<g transform="translate(0.000000,49.000000) scale(0.100000,-0.100000)"
fill="#000000" stroke="none">
<path d="M195 389 c-32 -19 -76 -62 -91 -91 -24 -47 -18 -78 26 -119 22 -21
40 -43 40 -49 0 -6 31 -10 79 -10 71 0 79 2 84 21 5 19 3 20 -34 14 -22 -4
-62 -1 -89 5 -84 20 -112 79 -70 148 23 37 91 75 97 55 8 -22 25 -14 21 10 -3
25 -33 33 -63 16z"/>
</g>
</svg>
