<?xml version="1.0" standalone="no"?>
<!DOCTYPE svg PUBLIC "-//W3C//DTD SVG 20010904//EN"
 "http://www.w3.org/TR/2001/REC-SVG-20010904/DTD/svg10.dtd">
<svg version="1.0" xmlns="http://www.w3.org/2000/svg"
 width="42.000000pt" height="56.000000pt" viewBox="0 0 42.000000 56.000000"
 preserveAspectRatio="xMidYMid meet">
<metadata>
Created by potrace 1.16, written by Peter Selinger 2001-2019
</metadata>
<g transform="translate(0.000000,56.000000) scale(0.100000,-0.100000)"
fill="#000000" stroke="none">
<path d="M157 460 c-56 -17 -71 -47 -45 -93 12 -21 13 -20 18 18 4 34 9 41 37
48 50 15 82 2 100 -40 8 -21 13 -51 10 -68 -7 -43 -60 -155 -74 -155 -13 0
-25 76 -22 135 3 43 -5 65 -23 65 -7 0 -8 -25 -3 -77 15 -149 14 -152 -3 -162
-25 -14 -6 -26 25 -15 17 6 42 34 72 83 43 69 46 79 46 142 0 60 -3 72 -25 94
-29 28 -72 38 -113 25z"/>
</g>
</svg>
