<?xml version="1.0" standalone="no"?>
<!DOCTYPE svg PUBLIC "-//W3C//DTD SVG 20010904//EN"
 "http://www.w3.org/TR/2001/REC-SVG-20010904/DTD/svg10.dtd">
<svg version="1.0" xmlns="http://www.w3.org/2000/svg"
 width="41.000000pt" height="53.000000pt" viewBox="0 0 41.000000 53.000000"
 preserveAspectRatio="xMidYMid meet">
<metadata>
Created by potrace 1.16, written by Peter Selinger 2001-2019
</metadata>
<g transform="translate(0.000000,53.000000) scale(0.100000,-0.100000)"
fill="#000000" stroke="none">
<path d="M118 419 c-23 -13 -23 -48 -1 -94 17 -36 17 -37 -6 -54 -19 -14 -20
-19 -9 -24 18 -7 30 -94 17 -119 -13 -25 15 -23 116 8 l80 24 -82 -5 -83 -4 0
44 c0 40 2 44 30 50 16 3 49 3 75 0 29 -5 45 -4 45 3 0 12 -37 20 -105 24 -36
3 -40 6 -43 33 -2 17 -11 38 -19 47 -20 22 -5 44 37 53 35 8 68 -8 72 -35 2
-12 8 -20 13 -20 17 1 5 44 -17 63 -22 19 -92 23 -120 6z"/>
</g>
</svg>
