<?xml version="1.0" standalone="no"?>
<!DOCTYPE svg PUBLIC "-//W3C//DTD SVG 20010904//EN"
 "http://www.w3.org/TR/2001/REC-SVG-20010904/DTD/svg10.dtd">
<svg version="1.0" xmlns="http://www.w3.org/2000/svg"
 width="49.000000pt" height="44.000000pt" viewBox="0 0 49.000000 44.000000"
 preserveAspectRatio="xMidYMid meet">
<metadata>
Created by potrace 1.16, written by Peter Selinger 2001-2019
</metadata>
<g transform="translate(0.000000,44.000000) scale(0.100000,-0.100000)"
fill="#000000" stroke="none">
<path d="M136 320 c-22 -27 -46 -86 -46 -115 0 -6 12 -28 26 -49 l26 -38 72 4
c60 4 78 10 119 38 26 19 47 37 47 42 0 13 -8 10 -50 -18 -65 -43 -210 -47
-210 -5 0 19 34 31 91 31 16 0 29 5 29 10 0 18 -60 130 -69 130 -5 0 -21 -14
-35 -30z m58 -46 c9 -20 16 -38 14 -39 -2 -2 -23 -6 -47 -10 -42 -7 -43 -6
-36 16 9 31 33 69 43 69 5 0 16 -16 26 -36z"/>
</g>
</svg>
