<?xml version="1.0" standalone="no"?>
<!DOCTYPE svg PUBLIC "-//W3C//DTD SVG 20010904//EN"
 "http://www.w3.org/TR/2001/REC-SVG-20010904/DTD/svg10.dtd">
<svg version="1.0" xmlns="http://www.w3.org/2000/svg"
 width="52.000000pt" height="68.000000pt" viewBox="0 0 52.000000 68.000000"
 preserveAspectRatio="xMidYMid meet">
<metadata>
Created by potrace 1.16, written by Peter Selinger 2001-2019
</metadata>
<g transform="translate(0.000000,68.000000) scale(0.100000,-0.100000)"
fill="#000000" stroke="none">
<path d="M172 571 c-17 -10 -8 -143 14 -206 17 -50 18 -90 2 -102 -7 -5 -29
-10 -48 -12 -40 -3 -50 -8 -50 -22 0 -7 20 -8 54 -4 l54 7 7 -56 c10 -80 28
-84 24 -5 l-4 64 93 9 c124 11 122 30 -4 24 l-95 -4 1 71 c2 95 2 95 -14 95
-10 0 -17 17 -22 56 -8 65 2 77 50 63 40 -12 56 -11 56 1 0 9 -62 30 -90 30
-8 0 -21 -4 -28 -9z"/>
</g>
</svg>
