<?xml version="1.0" standalone="no"?>
<!DOCTYPE svg PUBLIC "-//W3C//DTD SVG 20010904//EN"
 "http://www.w3.org/TR/2001/REC-SVG-20010904/DTD/svg10.dtd">
<svg version="1.0" xmlns="http://www.w3.org/2000/svg"
 width="39.000000pt" height="51.000000pt" viewBox="0 0 39.000000 51.000000"
 preserveAspectRatio="xMidYMid meet">
<metadata>
Created by potrace 1.16, written by Peter Selinger 2001-2019
</metadata>
<g transform="translate(0.000000,51.000000) scale(0.100000,-0.100000)"
fill="#000000" stroke="none">
<path d="M143 399 c-18 -11 -34 -28 -37 -37 -7 -22 1 -168 11 -211 12 -48 29
-50 25 -2 -4 43 8 50 83 51 22 0 46 4 53 9 24 15 -12 21 -83 14 l-65 -6 0 30
c0 17 -3 44 -6 61 -9 43 34 87 77 78 31 -6 37 2 17 22 -17 17 -38 15 -75 -9z"/>
</g>
</svg>
