<?xml version="1.0" standalone="no"?>
<!DOCTYPE svg PUBLIC "-//W3C//DTD SVG 20010904//EN"
 "http://www.w3.org/TR/2001/REC-SVG-20010904/DTD/svg10.dtd">
<svg version="1.0" xmlns="http://www.w3.org/2000/svg"
 width="45.000000pt" height="52.000000pt" viewBox="0 0 45.000000 52.000000"
 preserveAspectRatio="xMidYMid meet">
<metadata>
Created by potrace 1.16, written by Peter Selinger 2001-2019
</metadata>
<g transform="translate(0.000000,52.000000) scale(0.100000,-0.100000)"
fill="#000000" stroke="none">
<path d="M169 413 c-36 -22 -59 -64 -66 -120 -6 -56 11 -128 32 -137 16 -6 21
9 6 18 -5 4 -12 24 -16 46 -16 92 27 180 87 180 26 0 29 2 18 15 -16 19 -28
19 -61 -2z"/>
<path d="M193 296 c-20 -9 -35 -25 -39 -40 -7 -30 25 -116 44 -116 16 0 16 2
-10 54 -21 44 -21 46 -3 66 15 17 29 20 64 18 l46 -3 12 -84 c6 -45 14 -86 17
-89 3 -3 6 38 6 91 0 53 -3 98 -7 100 -23 14 -101 16 -130 3z"/>
</g>
</svg>
