<?xml version="1.0" standalone="no"?>
<!DOCTYPE svg PUBLIC "-//W3C//DTD SVG 20010904//EN"
 "http://www.w3.org/TR/2001/REC-SVG-20010904/DTD/svg10.dtd">
<svg version="1.0" xmlns="http://www.w3.org/2000/svg"
 width="41.000000pt" height="50.000000pt" viewBox="0 0 41.000000 50.000000"
 preserveAspectRatio="xMidYMid meet">
<metadata>
Created by potrace 1.16, written by Peter Selinger 2001-2019
</metadata>
<g transform="translate(0.000000,50.000000) scale(0.100000,-0.100000)"
fill="#000000" stroke="none">
<path d="M249 383 c-8 -103 -6 -99 -71 -108 l-47 -7 -3 48 c-2 26 -8 49 -14
51 -13 4 -13 -194 0 -215 17 -27 27 -11 21 33 -7 41 -5 45 18 54 14 5 40 13
60 16 l34 7 7 -60 c6 -56 27 -104 40 -91 4 3 1 19 -5 35 -7 16 -13 78 -13 138
-1 78 -5 111 -13 113 -7 3 -14 -4 -14 -14z"/>
</g>
</svg>
