<?xml version="1.0" standalone="no"?>
<!DOCTYPE svg PUBLIC "-//W3C//DTD SVG 20010904//EN"
 "http://www.w3.org/TR/2001/REC-SVG-20010904/DTD/svg10.dtd">
<svg version="1.0" xmlns="http://www.w3.org/2000/svg"
 width="45.000000pt" height="62.000000pt" viewBox="0 0 45.000000 62.000000"
 preserveAspectRatio="xMidYMid meet">
<metadata>
Created by potrace 1.16, written by Peter Selinger 2001-2019
</metadata>
<g transform="translate(0.000000,62.000000) scale(0.100000,-0.100000)"
fill="#000000" stroke="none">
<path d="M116 515 c-13 -34 -17 -175 -8 -263 13 -126 19 -132 134 -132 72 0
88 3 88 15 0 9 -25 49 -56 90 -59 78 -91 98 -125 77 -10 -7 -21 -8 -24 -3 -5
9 0 89 11 172 5 46 -8 75 -20 44z m132 -296 c26 -33 49 -65 50 -70 3 -6 -28
-9 -75 -7 l-78 3 2 55 c3 70 8 80 33 80 13 0 37 -22 68 -61z"/>
</g>
</svg>
