<?xml version="1.0" standalone="no"?>
<!DOCTYPE svg PUBLIC "-//W3C//DTD SVG 20010904//EN"
 "http://www.w3.org/TR/2001/REC-SVG-20010904/DTD/svg10.dtd">
<svg version="1.0" xmlns="http://www.w3.org/2000/svg"
 width="55.000000pt" height="54.000000pt" viewBox="0 0 55.000000 54.000000"
 preserveAspectRatio="xMidYMid meet">
<metadata>
Created by potrace 1.16, written by Peter Selinger 2001-2019
</metadata>
<g transform="translate(0.000000,54.000000) scale(0.100000,-0.100000)"
fill="#000000" stroke="none">
<path d="M194 431 c-44 -11 -53 -18 -47 -41 6 -23 19 -26 26 -6 7 18 100 40
135 31 15 -3 35 -14 45 -22 15 -15 17 -15 17 0 0 40 -87 59 -176 38z"/>
<path d="M222 322 c-13 -42 -26 -94 -29 -115 -4 -29 -11 -38 -29 -42 -13 -3
-35 -7 -49 -10 -14 -3 -25 -12 -25 -20 0 -12 10 -14 55 -9 38 5 55 3 55 -5 0
-6 7 -11 15 -11 8 0 15 5 15 10 0 6 40 10 100 10 93 0 100 1 100 20 0 18 -8
20 -107 22 l-108 3 3 35 c2 19 12 58 21 85 15 41 22 50 40 48 l21 -3 -22 30
c-12 17 -24 30 -27 30 -3 0 -16 -35 -29 -78z"/>
</g>
</svg>
