<?xml version="1.0" standalone="no"?>
<!DOCTYPE svg PUBLIC "-//W3C//DTD SVG 20010904//EN"
 "http://www.w3.org/TR/2001/REC-SVG-20010904/DTD/svg10.dtd">
<svg version="1.0" xmlns="http://www.w3.org/2000/svg"
 width="57.000000pt" height="58.000000pt" viewBox="0 0 57.000000 58.000000"
 preserveAspectRatio="xMidYMid meet">
<metadata>
Created by potrace 1.16, written by Peter Selinger 2001-2019
</metadata>
<g transform="translate(0.000000,58.000000) scale(0.100000,-0.100000)"
fill="#000000" stroke="none">
<path d="M238 424 c-45 -29 -51 -39 -44 -70 15 -58 106 -10 106 56 0 38 -18
42 -62 14z m16 -55 c-22 -24 -34 -24 -34 0 0 11 10 27 23 36 20 14 22 14 25 0
2 -9 -4 -25 -14 -36z"/>
<path d="M294 278 c4 -13 10 -51 13 -86 7 -75 29 -81 26 -6 -4 81 -12 114 -30
114 -11 0 -14 -6 -9 -22z"/>
</g>
</svg>
