<?xml version="1.0" standalone="no"?>
<!DOCTYPE svg PUBLIC "-//W3C//DTD SVG 20010904//EN"
 "http://www.w3.org/TR/2001/REC-SVG-20010904/DTD/svg10.dtd">
<svg version="1.0" xmlns="http://www.w3.org/2000/svg"
 width="55.000000pt" height="52.000000pt" viewBox="0 0 55.000000 52.000000"
 preserveAspectRatio="xMidYMid meet">
<metadata>
Created by potrace 1.16, written by Peter Selinger 2001-2019
</metadata>
<g transform="translate(0.000000,52.000000) scale(0.100000,-0.100000)"
fill="#000000" stroke="none">
<path d="M138 413 c-14 -2 -32 -11 -38 -18 -14 -17 -10 -19 58 -34 46 -10 59
2 15 14 -26 7 -26 8 -8 15 24 10 97 12 119 4 9 -3 16 -14 16 -23 0 -9 13 -55
30 -101 16 -47 30 -91 30 -97 0 -20 -159 -17 -188 3 -12 8 -22 22 -22 30 0 8
-4 14 -10 14 -13 0 -13 -27 0 -35 6 -3 10 -14 10 -24 0 -20 20 -26 132 -37 44
-5 64 -3 82 9 22 15 23 20 15 54 -4 21 -20 71 -34 111 -14 40 -23 77 -21 81 3
4 30 6 61 3 32 -3 55 0 55 5 0 24 -202 41 -302 26z"/>
</g>
</svg>
