<?xml version="1.0" standalone="no"?>
<!DOCTYPE svg PUBLIC "-//W3C//DTD SVG 20010904//EN"
 "http://www.w3.org/TR/2001/REC-SVG-20010904/DTD/svg10.dtd">
<svg version="1.0" xmlns="http://www.w3.org/2000/svg"
 width="33.000000pt" height="56.000000pt" viewBox="0 0 33.000000 56.000000"
 preserveAspectRatio="xMidYMid meet">
<metadata>
Created by potrace 1.16, written by Peter Selinger 2001-2019
</metadata>
<g transform="translate(0.000000,56.000000) scale(0.100000,-0.100000)"
fill="#000000" stroke="none">
<path d="M40 547 c0 -22 23 -37 58 -37 40 0 72 15 72 35 0 19 -10 18 -34 0
-26 -20 -66 -19 -66 0 0 8 -7 15 -15 15 -8 0 -15 -6 -15 -13z"/>
<path d="M150 455 c0 -9 6 -28 14 -43 19 -38 26 -130 16 -203 -5 -34 -11 -63
-14 -66 -3 -3 -19 7 -37 21 -44 37 -50 23 -9 -19 49 -50 66 -46 79 18 22 102
-2 307 -34 307 -8 0 -15 -7 -15 -15z"/>
</g>
</svg>
