<?xml version="1.0" standalone="no"?>
<!DOCTYPE svg PUBLIC "-//W3C//DTD SVG 20010904//EN"
 "http://www.w3.org/TR/2001/REC-SVG-20010904/DTD/svg10.dtd">
<svg version="1.0" xmlns="http://www.w3.org/2000/svg"
 width="43.000000pt" height="52.000000pt" viewBox="0 0 43.000000 52.000000"
 preserveAspectRatio="xMidYMid meet">
<metadata>
Created by potrace 1.16, written by Peter Selinger 2001-2019
</metadata>
<g transform="translate(0.000000,52.000000) scale(0.100000,-0.100000)"
fill="#000000" stroke="none">
<path d="M97 423 c-3 -5 -1 -27 5 -49 6 -24 8 -73 4 -127 -5 -61 -4 -87 4 -82
5 3 10 15 10 26 0 26 4 25 47 -21 33 -35 45 -41 96 -46 49 -6 57 -4 57 10 0
12 -9 16 -35 16 -42 0 -94 20 -114 43 -25 31 -6 83 44 117 25 17 45 37 45 45
0 26 -45 16 -75 -15 -41 -42 -55 -39 -55 13 0 43 -21 89 -33 70z"/>
</g>
</svg>
