<?xml version="1.0" standalone="no"?>
<!DOCTYPE svg PUBLIC "-//W3C//DTD SVG 20010904//EN"
 "http://www.w3.org/TR/2001/REC-SVG-20010904/DTD/svg10.dtd">
<svg version="1.0" xmlns="http://www.w3.org/2000/svg"
 width="48.000000pt" height="55.000000pt" viewBox="0 0 48.000000 55.000000"
 preserveAspectRatio="xMidYMid meet">
<metadata>
Created by potrace 1.16, written by Peter Selinger 2001-2019
</metadata>
<g transform="translate(0.000000,55.000000) scale(0.100000,-0.100000)"
fill="#000000" stroke="none">
<path d="M150 443 c0 -11 -12 -57 -26 -104 -31 -102 -29 -178 4 -212 l22 -21
16 41 17 42 25 -19 c33 -27 162 -28 162 -1 0 3 -26 6 -58 6 -59 0 -112 19
-112 39 0 6 14 29 31 49 23 28 29 41 20 50 -6 6 -12 9 -14 6 -23 -26 -79 -117
-83 -135 -14 -57 -41 -1 -30 61 4 20 15 62 26 94 24 76 28 113 13 118 -8 3
-13 -4 -13 -14z"/>
</g>
</svg>
