<?xml version="1.0" standalone="no"?>
<!DOCTYPE svg PUBLIC "-//W3C//DTD SVG 20010904//EN"
 "http://www.w3.org/TR/2001/REC-SVG-20010904/DTD/svg10.dtd">
<svg version="1.0" xmlns="http://www.w3.org/2000/svg"
 width="38.000000pt" height="61.000000pt" viewBox="0 0 38.000000 61.000000"
 preserveAspectRatio="xMidYMid meet">
<metadata>
Created by potrace 1.16, written by Peter Selinger 2001-2019
</metadata>
<g transform="translate(0.000000,61.000000) scale(0.100000,-0.100000)"
fill="#000000" stroke="none">
<path d="M142 508 c-21 -26 -24 -85 -8 -140 15 -53 15 -56 -10 -124 -36 -99
-37 -104 -27 -104 10 0 34 50 51 105 8 29 9 28 53 -53 64 -119 79 -103 18 19
l-51 101 16 79 c18 88 21 144 7 119 -5 -8 -11 -35 -15 -60 -12 -81 -28 -83
-23 -2 2 39 3 72 2 72 -1 0 -7 -6 -13 -12z"/>
</g>
</svg>
