<?xml version="1.0" standalone="no"?>
<!DOCTYPE svg PUBLIC "-//W3C//DTD SVG 20010904//EN"
 "http://www.w3.org/TR/2001/REC-SVG-20010904/DTD/svg10.dtd">
<svg version="1.0" xmlns="http://www.w3.org/2000/svg"
 width="49.000000pt" height="46.000000pt" viewBox="0 0 49.000000 46.000000"
 preserveAspectRatio="xMidYMid meet">
<metadata>
Created by potrace 1.16, written by Peter Selinger 2001-2019
</metadata>
<g transform="translate(0.000000,46.000000) scale(0.100000,-0.100000)"
fill="#000000" stroke="none">
<path d="M116 347 c-11 -47 -19 -165 -12 -201 13 -69 26 -36 27 67 0 83 2 98
12 82 24 -39 79 -85 102 -85 27 0 40 18 50 73 10 54 23 46 30 -20 9 -82 28
-146 44 -151 10 -3 12 0 6 14 -14 35 -25 89 -25 129 0 53 -18 115 -33 115 -7
0 -23 -29 -35 -65 -25 -69 -39 -78 -78 -51 -11 8 -31 38 -45 65 -27 57 -34 62
-43 28z"/>
</g>
</svg>
