<?xml version="1.0" standalone="no"?>
<!DOCTYPE svg PUBLIC "-//W3C//DTD SVG 20010904//EN"
 "http://www.w3.org/TR/2001/REC-SVG-20010904/DTD/svg10.dtd">
<svg version="1.0" xmlns="http://www.w3.org/2000/svg"
 width="45.000000pt" height="42.000000pt" viewBox="0 0 45.000000 42.000000"
 preserveAspectRatio="xMidYMid meet">
<metadata>
Created by potrace 1.16, written by Peter Selinger 2001-2019
</metadata>
<g transform="translate(0.000000,42.000000) scale(0.100000,-0.100000)"
fill="#000000" stroke="none">
<path d="M111 268 c-16 -89 -18 -150 -5 -155 7 -2 13 25 18 78 8 94 12 105 33
87 17 -14 73 -125 73 -144 0 -23 30 -23 44 -1 16 24 66 164 66 185 0 6 -7 12
-16 12 -11 0 -15 -6 -11 -19 5 -21 -43 -153 -58 -158 -6 -2 -18 20 -28 48 -17
46 -79 129 -97 129 -4 0 -13 -28 -19 -62z"/>
</g>
</svg>
