<?xml version="1.0" standalone="no"?>
<!DOCTYPE svg PUBLIC "-//W3C//DTD SVG 20010904//EN"
 "http://www.w3.org/TR/2001/REC-SVG-20010904/DTD/svg10.dtd">
<svg version="1.0" xmlns="http://www.w3.org/2000/svg"
 width="45.000000pt" height="43.000000pt" viewBox="0 0 45.000000 43.000000"
 preserveAspectRatio="xMidYMid meet">
<metadata>
Created by potrace 1.16, written by Peter Selinger 2001-2019
</metadata>
<g transform="translate(0.000000,43.000000) scale(0.100000,-0.100000)"
fill="#000000" stroke="none">
<path d="M167 312 c-10 -10 -17 -26 -17 -35 0 -28 -17 -19 -23 13 -4 17 -13
30 -21 30 -11 0 -12 -9 -1 -57 10 -52 39 -123 49 -123 2 0 3 15 1 34 -6 67 22
136 56 136 4 0 17 -25 28 -55 31 -83 58 -132 77 -139 26 -10 30 3 7 19 -12 9
-30 43 -43 82 -12 38 -28 78 -36 91 -18 27 -55 29 -77 4z"/>
</g>
</svg>
