<?xml version="1.0" standalone="no"?>
<!DOCTYPE svg PUBLIC "-//W3C//DTD SVG 20010904//EN"
 "http://www.w3.org/TR/2001/REC-SVG-20010904/DTD/svg10.dtd">
<svg version="1.0" xmlns="http://www.w3.org/2000/svg"
 width="45.000000pt" height="47.000000pt" viewBox="0 0 45.000000 47.000000"
 preserveAspectRatio="xMidYMid meet">
<metadata>
Created by potrace 1.16, written by Peter Selinger 2001-2019
</metadata>
<g transform="translate(0.000000,47.000000) scale(0.100000,-0.100000)"
fill="#000000" stroke="none">
<path d="M183 364 c-58 -21 -85 -66 -81 -134 2 -34 10 -60 25 -78 20 -25 26
-27 98 -26 64 0 80 4 91 19 39 53 -22 238 -78 234 -7 0 -32 -7 -55 -15z m91
-52 c8 -15 17 -53 21 -84 7 -57 7 -58 -21 -69 -46 -17 -110 -3 -134 31 -26 37
-25 69 3 111 18 26 31 35 62 39 48 7 51 6 69 -28z"/>
</g>
</svg>
