<?xml version="1.0" standalone="no"?>
<!DOCTYPE svg PUBLIC "-//W3C//DTD SVG 20010904//EN"
 "http://www.w3.org/TR/2001/REC-SVG-20010904/DTD/svg10.dtd">
<svg version="1.0" xmlns="http://www.w3.org/2000/svg"
 width="42.000000pt" height="41.000000pt" viewBox="0 0 42.000000 41.000000"
 preserveAspectRatio="xMidYMid meet">
<metadata>
Created by potrace 1.16, written by Peter Selinger 2001-2019
</metadata>
<g transform="translate(0.000000,41.000000) scale(0.100000,-0.100000)"
fill="#000000" stroke="none">
<path d="M168 300 c-55 -29 -81 -68 -74 -110 6 -41 34 -67 82 -76 77 -14 121
18 130 96 l6 56 -39 27 c-46 32 -56 32 -105 7z m62 -9 c0 -6 -5 -13 -10 -16
-19 -12 1 -25 21 -15 11 6 24 8 29 5 13 -8 13 -81 0 -104 -22 -43 -133 -31
-150 15 -14 35 6 71 54 99 45 27 56 30 56 16z"/>
</g>
</svg>
