<?xml version="1.0" standalone="no"?>
<!DOCTYPE svg PUBLIC "-//W3C//DTD SVG 20010904//EN"
 "http://www.w3.org/TR/2001/REC-SVG-20010904/DTD/svg10.dtd">
<svg version="1.0" xmlns="http://www.w3.org/2000/svg"
 width="38.000000pt" height="73.000000pt" viewBox="0 0 38.000000 73.000000"
 preserveAspectRatio="xMidYMid meet">
<metadata>
Created by potrace 1.16, written by Peter Selinger 2001-2019
</metadata>
<g transform="translate(0.000000,73.000000) scale(0.100000,-0.100000)"
fill="#000000" stroke="none">
<path d="M107 616 c-6 -16 13 -58 29 -63 7 -2 10 6 7 22 -5 21 -2 25 19 25 32
0 68 -39 74 -81 6 -40 -20 -93 -60 -123 -34 -26 -41 -16 -50 65 -6 50 -19 80
-30 68 -2 -2 4 -49 13 -104 9 -55 16 -148 15 -208 0 -59 3 -107 7 -107 10 0
19 68 19 157 0 91 5 113 27 113 25 0 71 55 79 94 10 56 -11 113 -49 136 -37
23 -92 26 -100 6z"/>
</g>
</svg>
