<?xml version="1.0" standalone="no"?>
<!DOCTYPE svg PUBLIC "-//W3C//DTD SVG 20010904//EN"
 "http://www.w3.org/TR/2001/REC-SVG-20010904/DTD/svg10.dtd">
<svg version="1.0" xmlns="http://www.w3.org/2000/svg"
 width="53.000000pt" height="51.000000pt" viewBox="0 0 53.000000 51.000000"
 preserveAspectRatio="xMidYMid meet">
<metadata>
Created by potrace 1.16, written by Peter Selinger 2001-2019
</metadata>
<g transform="translate(0.000000,51.000000) scale(0.100000,-0.100000)"
fill="#000000" stroke="none">
<path d="M225 394 c-16 -8 -41 -20 -55 -27 -68 -34 -91 -131 -43 -187 26 -32
29 -32 90 -27 48 3 76 0 114 -14 51 -20 104 -25 95 -10 -3 5 -18 12 -33 16
-16 3 -42 13 -59 21 l-31 15 19 37 c35 67 5 184 -48 189 -10 1 -32 -5 -49 -13z
m75 -33 c11 -22 13 -93 4 -128 -9 -33 -33 -28 -40 7 -4 17 -13 30 -21 30 -15
0 -15 -12 2 -67 6 -18 2 -22 -24 -28 -61 -13 -113 38 -98 96 4 14 21 39 39 58
30 30 36 33 76 27 39 -5 43 -4 32 9 -10 12 -10 15 3 15 9 0 21 -9 27 -19z"/>
</g>
</svg>
