<?xml version="1.0" standalone="no"?>
<!DOCTYPE svg PUBLIC "-//W3C//DTD SVG 20010904//EN"
 "http://www.w3.org/TR/2001/REC-SVG-20010904/DTD/svg10.dtd">
<svg version="1.0" xmlns="http://www.w3.org/2000/svg"
 width="38.000000pt" height="37.000000pt" viewBox="0 0 38.000000 37.000000"
 preserveAspectRatio="xMidYMid meet">
<metadata>
Created by potrace 1.16, written by Peter Selinger 2001-2019
</metadata>
<g transform="translate(0.000000,37.000000) scale(0.100000,-0.100000)"
fill="#000000" stroke="none">
<path d="M96 262 c-8 -13 3 -42 15 -42 5 0 9 7 9 16 0 13 6 15 28 9 40 -10 46
-20 28 -46 -9 -13 -16 -35 -16 -50 0 -28 19 -39 69 -39 21 0 23 3 19 43 -3 23
-8 50 -12 60 -6 13 -3 17 14 17 36 0 17 25 -21 27 -19 1 -55 4 -80 8 -29 5
-49 3 -53 -3z m128 -88 c8 -31 -5 -49 -28 -41 -19 7 -21 38 -4 55 18 18 25 15
32 -14z"/>
</g>
</svg>
