<?xml version="1.0" standalone="no"?>
<!DOCTYPE svg PUBLIC "-//W3C//DTD SVG 20010904//EN"
 "http://www.w3.org/TR/2001/REC-SVG-20010904/DTD/svg10.dtd">
<svg version="1.0" xmlns="http://www.w3.org/2000/svg"
 width="37.000000pt" height="43.000000pt" viewBox="0 0 37.000000 43.000000"
 preserveAspectRatio="xMidYMid meet">
<metadata>
Created by potrace 1.16, written by Peter Selinger 2001-2019
</metadata>
<g transform="translate(0.000000,43.000000) scale(0.100000,-0.100000)"
fill="#000000" stroke="none">
<path d="M126 308 c-31 -44 -19 -66 47 -87 47 -16 68 -49 41 -68 -10 -7 -33
-13 -51 -13 -27 0 -35 5 -44 27 -7 18 -13 23 -20 16 -17 -17 -1 -50 31 -63 24
-10 37 -9 75 5 38 15 45 22 45 46 0 32 -38 67 -82 76 -36 7 -42 17 -28 44 12
21 24 22 90 4 l25 -7 -24 21 c-32 29 -85 28 -105 -1z"/>
</g>
</svg>
