<?xml version="1.0" standalone="no"?>
<!DOCTYPE svg PUBLIC "-//W3C//DTD SVG 20010904//EN"
 "http://www.w3.org/TR/2001/REC-SVG-20010904/DTD/svg10.dtd">
<svg version="1.0" xmlns="http://www.w3.org/2000/svg"
 width="39.000000pt" height="43.000000pt" viewBox="0 0 39.000000 43.000000"
 preserveAspectRatio="xMidYMid meet">
<metadata>
Created by potrace 1.16, written by Peter Selinger 2001-2019
</metadata>
<g transform="translate(0.000000,43.000000) scale(0.100000,-0.100000)"
fill="#000000" stroke="none">
<path d="M118 329 c-10 -5 -18 -21 -18 -35 0 -21 9 -29 48 -45 84 -35 97 -46
97 -76 0 -28 -1 -28 -55 -26 -37 2 -59 8 -67 19 -13 17 -33 11 -33 -10 0 -22
53 -37 116 -34 l59 3 3 37 c2 29 -2 43 -21 62 -13 13 -27 32 -31 41 -5 14 -9
15 -20 5 -11 -9 -21 -8 -45 5 -17 8 -31 20 -31 25 0 13 57 13 65 0 9 -15 25
-12 25 5 0 9 -12 20 -26 25 -32 12 -44 12 -66 -1z"/>
</g>
</svg>
