<?xml version="1.0" standalone="no"?>
<!DOCTYPE svg PUBLIC "-//W3C//DTD SVG 20010904//EN"
 "http://www.w3.org/TR/2001/REC-SVG-20010904/DTD/svg10.dtd">
<svg version="1.0" xmlns="http://www.w3.org/2000/svg"
 width="46.000000pt" height="51.000000pt" viewBox="0 0 46.000000 51.000000"
 preserveAspectRatio="xMidYMid meet">
<metadata>
Created by potrace 1.16, written by Peter Selinger 2001-2019
</metadata>
<g transform="translate(0.000000,51.000000) scale(0.100000,-0.100000)"
fill="#000000" stroke="none">
<path d="M140 340 c0 -79 0 -80 -26 -80 -34 0 -26 -24 10 -28 19 -2 30 -12 37
-30 16 -43 58 -92 78 -92 24 0 45 25 37 45 -5 13 -9 13 -26 3 -19 -12 -24 -10
-46 15 -36 42 -31 55 24 62 82 11 115 20 120 33 3 10 -5 11 -34 5 -22 -4 -64
-8 -94 -8 l-55 0 -3 78 c-4 102 -22 100 -22 -3z"/>
</g>
</svg>
