<?xml version="1.0" standalone="no"?>
<!DOCTYPE svg PUBLIC "-//W3C//DTD SVG 20010904//EN"
 "http://www.w3.org/TR/2001/REC-SVG-20010904/DTD/svg10.dtd">
<svg version="1.0" xmlns="http://www.w3.org/2000/svg"
 width="56.000000pt" height="47.000000pt" viewBox="0 0 56.000000 47.000000"
 preserveAspectRatio="xMidYMid meet">
<metadata>
Created by potrace 1.16, written by Peter Selinger 2001-2019
</metadata>
<g transform="translate(0.000000,47.000000) scale(0.100000,-0.100000)"
fill="#000000" stroke="none">
<path d="M165 356 c-106 -17 -69 -41 40 -25 21 3 29 0 27 -9 -8 -41 -14 -164
-8 -186 10 -40 29 -32 22 9 -4 20 -2 71 5 114 l12 80 48 6 c26 4 66 5 88 4 22
-2 42 1 43 6 4 14 -194 15 -277 1z"/>
</g>
</svg>
