<?xml version="1.0" standalone="no"?>
<!DOCTYPE svg PUBLIC "-//W3C//DTD SVG 20010904//EN"
 "http://www.w3.org/TR/2001/REC-SVG-20010904/DTD/svg10.dtd">
<svg version="1.0" xmlns="http://www.w3.org/2000/svg"
 width="45.000000pt" height="49.000000pt" viewBox="0 0 45.000000 49.000000"
 preserveAspectRatio="xMidYMid meet">
<metadata>
Created by potrace 1.16, written by Peter Selinger 2001-2019
</metadata>
<g transform="translate(0.000000,49.000000) scale(0.100000,-0.100000)"
fill="#000000" stroke="none">
<path d="M246 368 c-33 -34 -27 -60 13 -66 14 -2 21 -9 18 -17 -3 -7 -8 -33
-12 -57 -8 -51 -12 -58 -42 -75 -25 -14 -61 -5 -82 21 -28 34 0 159 31 140 4
-3 8 7 8 21 0 39 -30 29 -57 -20 -25 -45 -29 -83 -11 -131 22 -63 112 -84 174
-42 50 34 58 92 24 167 -11 24 -20 54 -20 67 0 31 -9 30 -44 -8z m60 -150 c-7
-34 -13 -44 -21 -36 -9 8 7 68 18 68 5 0 7 -13 3 -32z"/>
</g>
</svg>
