<?xml version="1.0" standalone="no"?>
<!DOCTYPE svg PUBLIC "-//W3C//DTD SVG 20010904//EN"
 "http://www.w3.org/TR/2001/REC-SVG-20010904/DTD/svg10.dtd">
<svg version="1.0" xmlns="http://www.w3.org/2000/svg"
 width="49.000000pt" height="42.000000pt" viewBox="0 0 49.000000 42.000000"
 preserveAspectRatio="xMidYMid meet">
<metadata>
Created by potrace 1.16, written by Peter Selinger 2001-2019
</metadata>
<g transform="translate(0.000000,42.000000) scale(0.100000,-0.100000)"
fill="#000000" stroke="none">
<path d="M245 321 c-3 -6 -3 -37 1 -69 7 -68 -13 -104 -60 -104 -50 -1 -83 63
-51 96 18 17 17 47 -1 53 -11 4 -34 -60 -34 -95 0 -11 12 -34 26 -51 32 -39
71 -41 112 -6 28 24 34 25 77 15 65 -15 80 0 20 19 l-50 16 -10 62 c-10 64
-18 82 -30 64z"/>
</g>
</svg>
