<?xml version="1.0" standalone="no"?>
<!DOCTYPE svg PUBLIC "-//W3C//DTD SVG 20010904//EN"
 "http://www.w3.org/TR/2001/REC-SVG-20010904/DTD/svg10.dtd">
<svg version="1.0" xmlns="http://www.w3.org/2000/svg"
 width="48.000000pt" height="43.000000pt" viewBox="0 0 48.000000 43.000000"
 preserveAspectRatio="xMidYMid meet">
<metadata>
Created by potrace 1.16, written by Peter Selinger 2001-2019
</metadata>
<g transform="translate(0.000000,43.000000) scale(0.100000,-0.100000)"
fill="#000000" stroke="none">
<path d="M327 302 c-8 -21 -21 -66 -27 -100 -8 -39 -18 -62 -26 -62 -7 0 -35
29 -61 65 -53 72 -79 87 -100 59 -15 -20 -18 -84 -4 -84 5 0 12 17 16 38 l7
37 67 -74 c77 -85 101 -91 114 -26 5 22 17 68 28 103 21 70 23 82 10 82 -5 0
-16 -17 -24 -38z"/>
</g>
</svg>
