<?xml version="1.0" standalone="no"?>
<!DOCTYPE svg PUBLIC "-//W3C//DTD SVG 20010904//EN"
 "http://www.w3.org/TR/2001/REC-SVG-20010904/DTD/svg10.dtd">
<svg version="1.0" xmlns="http://www.w3.org/2000/svg"
 width="49.000000pt" height="51.000000pt" viewBox="0 0 49.000000 51.000000"
 preserveAspectRatio="xMidYMid meet">
<metadata>
Created by potrace 1.16, written by Peter Selinger 2001-2019
</metadata>
<g transform="translate(0.000000,51.000000) scale(0.100000,-0.100000)"
fill="#000000" stroke="none">
<path d="M344 412 c-18 -12 -40 -63 -53 -122 -27 -123 -33 -140 -52 -140 -27
0 -54 30 -88 99 -36 71 -57 90 -48 42 8 -39 68 -133 98 -155 55 -38 82 -14
103 96 24 129 30 143 54 141 25 -3 28 6 10 30 -7 9 -18 13 -24 9z"/>
</g>
</svg>
