<?xml version="1.0" standalone="no"?>
<!DOCTYPE svg PUBLIC "-//W3C//DTD SVG 20010904//EN"
 "http://www.w3.org/TR/2001/REC-SVG-20010904/DTD/svg10.dtd">
<svg version="1.0" xmlns="http://www.w3.org/2000/svg"
 width="58.000000pt" height="41.000000pt" viewBox="0 0 58.000000 41.000000"
 preserveAspectRatio="xMidYMid meet">
<metadata>
Created by potrace 1.16, written by Peter Selinger 2001-2019
</metadata>
<g transform="translate(0.000000,41.000000) scale(0.100000,-0.100000)"
fill="#000000" stroke="none">
<path d="M340 296 c0 -9 8 -12 24 -9 42 8 68 -28 64 -90 -3 -49 -5 -52 -32
-55 -44 -5 -85 17 -104 56 -27 56 -46 37 -27 -25 6 -19 2 -25 -20 -33 -34 -13
-91 1 -111 27 -16 21 -18 53 -4 53 17 0 33 41 20 54 -8 8 -16 5 -30 -14 -25
-32 -25 -81 -2 -111 17 -20 28 -22 88 -22 38 1 78 2 89 3 11 2 41 -3 68 -11
45 -13 48 -12 70 9 17 18 22 34 22 78 0 49 -4 59 -28 80 -31 26 -87 33 -87 10z"/>
</g>
</svg>
