<?xml version="1.0" standalone="no"?>
<!DOCTYPE svg PUBLIC "-//W3C//DTD SVG 20010904//EN"
 "http://www.w3.org/TR/2001/REC-SVG-20010904/DTD/svg10.dtd">
<svg version="1.0" xmlns="http://www.w3.org/2000/svg"
 width="54.000000pt" height="47.000000pt" viewBox="0 0 54.000000 47.000000"
 preserveAspectRatio="xMidYMid meet">
<metadata>
Created by potrace 1.16, written by Peter Selinger 2001-2019
</metadata>
<g transform="translate(0.000000,47.000000) scale(0.100000,-0.100000)"
fill="#000000" stroke="none">
<path d="M332 368 c-18 -18 -14 -30 7 -23 24 7 46 -23 55 -77 11 -59 -16 -98
-66 -98 -27 0 -68 40 -68 66 0 8 -4 14 -10 14 -11 0 -11 0 -15 -48 -1 -17 -8
-39 -14 -46 -17 -21 -66 -36 -82 -25 -18 10 -18 114 -1 131 16 16 15 58 -1 58
-28 0 -49 -161 -24 -193 19 -27 115 -12 130 19 12 28 15 28 41 9 54 -41 136 9
136 82 -1 56 -43 142 -70 143 -4 0 -11 -5 -18 -12z"/>
</g>
</svg>
