<?xml version="1.0" standalone="no"?>
<!DOCTYPE svg PUBLIC "-//W3C//DTD SVG 20010904//EN"
 "http://www.w3.org/TR/2001/REC-SVG-20010904/DTD/svg10.dtd">
<svg version="1.0" xmlns="http://www.w3.org/2000/svg"
 width="59.000000pt" height="47.000000pt" viewBox="0 0 59.000000 47.000000"
 preserveAspectRatio="xMidYMid meet">
<metadata>
Created by potrace 1.16, written by Peter Selinger 2001-2019
</metadata>
<g transform="translate(0.000000,47.000000) scale(0.100000,-0.100000)"
fill="#000000" stroke="none">
<path d="M360 354 c-14 -9 -42 -33 -62 -52 l-37 -35 -73 21 c-87 26 -88 26
-88 7 0 -17 36 -39 50 -30 11 7 80 -12 80 -22 0 -2 -22 -30 -50 -61 -28 -31
-50 -60 -50 -64 0 -18 20 -5 74 52 32 33 62 60 67 60 19 0 162 -74 179 -93 21
-22 36 -18 27 7 -7 18 -64 54 -127 81 -61 25 -66 31 -45 52 41 41 80 63 113
63 22 0 32 4 30 13 -7 19 -60 20 -88 1z"/>
</g>
</svg>
