<?xml version="1.0" standalone="no"?>
<!DOCTYPE svg PUBLIC "-//W3C//DTD SVG 20010904//EN"
 "http://www.w3.org/TR/2001/REC-SVG-20010904/DTD/svg10.dtd">
<svg version="1.0" xmlns="http://www.w3.org/2000/svg"
 width="50.000000pt" height="62.000000pt" viewBox="0 0 50.000000 62.000000"
 preserveAspectRatio="xMidYMid meet">
<metadata>
Created by potrace 1.16, written by Peter Selinger 2001-2019
</metadata>
<g transform="translate(0.000000,62.000000) scale(0.100000,-0.100000)"
fill="#000000" stroke="none">
<path d="M356 519 c-2 -8 -10 -43 -16 -79 -7 -36 -16 -69 -20 -73 -4 -4 -55
15 -113 42 -59 27 -109 46 -112 41 -8 -13 30 -36 125 -75 46 -19 84 -36 86
-38 2 -1 4 -41 5 -87 2 -89 18 -140 45 -140 13 0 12 5 -4 28 -15 21 -19 41
-18 87 4 90 3 88 31 81 32 -8 32 7 1 31 l-25 18 21 78 c16 58 18 81 10 89 -8
8 -12 8 -16 -3z"/>
</g>
</svg>
