<?xml version="1.0" standalone="no"?>
<!DOCTYPE svg PUBLIC "-//W3C//DTD SVG 20010904//EN"
 "http://www.w3.org/TR/2001/REC-SVG-20010904/DTD/svg10.dtd">
<svg version="1.0" xmlns="http://www.w3.org/2000/svg"
 width="40.000000pt" height="58.000000pt" viewBox="0 0 40.000000 58.000000"
 preserveAspectRatio="xMidYMid meet">
<metadata>
Created by potrace 1.16, written by Peter Selinger 2001-2019
</metadata>
<g transform="translate(0.000000,58.000000) scale(0.100000,-0.100000)"
fill="#000000" stroke="none">
<path d="M240 453 c0 -61 -10 -83 -35 -83 -29 0 -75 36 -75 60 0 29 -11 50
-26 50 -29 0 -7 -79 31 -110 9 -7 33 -16 53 -19 l37 -6 0 -110 c0 -90 3 -110
15 -113 13 -2 15 10 11 79 -2 54 2 105 14 151 18 76 14 138 -10 138 -11 0 -15
-11 -15 -37z"/>
</g>
</svg>
