<?xml version="1.0" standalone="no"?>
<!DOCTYPE svg PUBLIC "-//W3C//DTD SVG 20010904//EN"
 "http://www.w3.org/TR/2001/REC-SVG-20010904/DTD/svg10.dtd">
<svg version="1.0" xmlns="http://www.w3.org/2000/svg"
 width="61.000000pt" height="55.000000pt" viewBox="0 0 61.000000 55.000000"
 preserveAspectRatio="xMidYMid meet">
<metadata>
Created by potrace 1.16, written by Peter Selinger 2001-2019
</metadata>
<g transform="translate(0.000000,55.000000) scale(0.100000,-0.100000)"
fill="#000000" stroke="none">
<path d="M93 447 c-11 -17 12 -22 123 -25 63 -2 114 -6 114 -8 0 -9 -64 -131
-94 -179 -46 -73 -60 -104 -52 -112 3 -4 38 1 76 11 68 18 163 18 218 1 38
-12 25 15 -15 32 -30 12 -58 14 -135 9 -54 -3 -98 -2 -98 3 0 4 9 19 19 33 35
44 123 220 114 228 -11 11 -264 17 -270 7z"/>
</g>
</svg>
